<svg xmlns="http://www.w3.org/2000/svg" xml:space="preserve" width="128" height="128" data-id="lg_8fLBjdVb93GKauDqGp" data-version="1"><g data-padding="20"><path d="M63.484 57.796q.817-.23 1.554-.568.737-.349 1.206-.797.777-.757.259-1.136a7 7 0 0 0-2.421-.648l-3.866 3.677a18 18 0 0 0 3.268-.528m1.624-6.148 3.318-3.088a11 11 0 0 0-4.016.956q-.597.3-1.026.698-.667.627-.259.946t1.983.498"/><path d="M88.721 66.813q.538 0 .917-.389L113.22 43.44a1.295 1.295 0 0 0-.927-2.222H39.88q-.488 0-.856.319L14.554 64.53a1.295 1.295 0 0 0 .856 2.282Zm-37.393-10.92 5.32-.05q-1.215 1.066-.717 1.694t2.053.787l4.244-3.975a7 7 0 0 0-1.016-.16q-1.196-.17-2.252-.398a5 5 0 0 1-1.674-.648q-.617-.398-.557-1.006.05-.618 1.096-1.544 1.046-.947 2.57-1.694t3.258-1.276a34 34 0 0 1 7.154-1.295l1.554-1.464 2.192-.09-1.564 1.474q1.564.03 2.73.27a4 4 0 0 1 1.773.687q.598.448.548 1.186-.06.717-.986 1.743l-5.28.12q.747-.777.438-1.295-.33-.499-1.595-.469l-3.586 3.388 1.644.209q2.351.339 3.258.887.896.548.976 1.165.07.628-.438 1.246-.498.628-.997 1.126-.438.418-1.524 1.086-1.076.657-2.79 1.285a29.9 29.9 0 0 1-9.296 1.664l-1.713 1.624-2.262-.02 1.734-1.624q-4.095-.17-5.221-1.315-1.136-1.146.926-3.318"/><path d="M90.245 71.595H14.414v5.201h76.917c.678 0 1.345-.269 1.834-.757L113.6 55.783v-7.552Z"/><path d="M14.414 81.559v5.22h79.508c.697 0 1.355-.278 1.843-.767L113.6 68.248v-7.443L92.846 81.559Z"/><path fill="transparent" stroke="transparent" stroke-width=".186" d="M12.5 40.345h103v47.31h-103z"/></g></svg>